# AST/ASF file generated using VICON BodyLanguage
# -----------------------------------------------
:version 1.10
:name VICON
:units
  mass 1.0
  length 0.45
  angle deg
:documentation
   .ast/.asf automatically generated from VICON data using
   VICON BodyBuilder and BodyLanguage model FoxedUp or BRILLIANT.MOD
:root
   order TX TY TZ RX RY RZ
   axis XYZ
   position 0 0 0  
   orientation 0 0 0 
:bonedata
  begin
     id 1 
     name lhipjoint
     direction 0.603808 -0.713975 0.35448 
     length 2.2025 
     axis 0 0 0  XYZ
  end
  begin
     id 2 
     name lfemur
     direction 0.34202 -0.939693 0  
     length 6.55877  
     axis 0 0 20  XYZ
    dof rx ry rz
    limits (-160.0 20.0)
           (-70.0 70.0)
           (-60.0 70.0)
  end
  begin
     id 3 
     name ltibia
     direction 0.34202 -0.939693 0   
     length 6.80302   
     axis 0 0 20   XYZ
    dof rx
    limits (-10.0 170.0)
  end
  begin
     id 4 
     name lfoot
     direction 0.091848 -0.25235 0.963267   
     length 2.03446   
     axis -90 7.62852e-016 20   XYZ
    dof rx rz
    limits (-45.0 90.0)
           (-70.0 20.0)
  end
  begin
     id 5 
     name ltoes
     direction 1.53608e-011 -4.21925e-011 1   
     length 1.02033   
     axis -90 7.62852e-016 20   XYZ
    dof rx
    limits (-90.0 20.0)
  end
  begin
     id 6 
     name rhipjoint
     direction -0.587285 -0.724947 0.359928   
     length 2.16916  
     axis 0 0 0  XYZ 
  end
  begin
     id 7 
     name rfemur
     direction -0.34202 -0.939693 0   
     length 6.43173   
     axis 0 0 -20   XYZ
    dof rx ry rz
    limits (-160.0 20.0)
           (-70.0 70.0)
           (-70.0 60.0)
  end
  begin
     id 8 
     name rtibia
     direction -0.34202 -0.939693 0   
     length 6.70662   
     axis 0 0 -20   XYZ
    dof rx
    limits (-10.0 170.0)
 end
 begin
     id 9 
     name rfoot
     direction -0.11854 -0.325686 0.938018   
     length 2.0773  
     axis -90 -7.62852e-016 -20   XYZ
    dof rx rz
    limits (-45.0 90.0)
           (-20.0 70.0)
  end
  begin
     id 10 
     name rtoes
     direction -1.53547e-011 -4.21838e-011 1   
     length 1.03267   
     axis -90 -7.62852e-016 -20   XYZ
    dof rx
    limits (-90.0 20.0)
  end
  begin
     id 11 
     name lowerback
     direction -0.0286554 0.999539 0.0100613   
     length 2.08751   
     axis 0 0 0   XYZ
    dof rx ry rz
    limits (-20.0 45.0)
           (-30.0 30.0)
           (-30.0 30.0)
  end
  begin
     id 12 
     name upperback
     direction 0.0227093 0.999705 -0.00860929   
     length 2.08517   
     axis 0 0 0   XYZ
    dof rx ry rz
    limits (-20.0 45.0)
           (-30.0 30.0)
           (-30.0 30.0)
  end
  begin
     id 13 
     name thorax
     direction 0.0351627 0.999285 -0.013892   
     length 2.08412   
     axis 0 0 0   XYZ
    dof rx ry rz
    limits (-20.0 45.0)
           (-30.0 30.0)
           (-30.0 30.0)
  end
  begin
     id 14 
     name lowerneck
     direction -0.0696283 0.997344 0.0213922   
     length 1.44164   
     axis 0 0 0   XYZ
    dof rx ry rz
    limits (-20.0 45.0)
           (-30.0 30.0)
           (-30.0 30.0)
  end
  begin
     id 15 
     name upperneck
     direction 0.0531 0.990412 -0.127531   
     length 1.45022   
     axis 0 0 0   XYZ
    dof rx ry rz
    limits (-20.0 45.0)
           (-30.0 30.0)
           (-30.0 30.0)
  end
  begin
     id 16
     name head
     direction 0.0188154 0.998548 -0.0504727  
     length 1.45845  
     axis 0 0 0   XYZ
    dof rx ry rz
    limits (-20.0 45.0)
           (-30.0 30.0)
           (-30.0 30.0)
  end
  begin
     id 17 
     name lclavicle
     direction 0.961559 0.260051 0.088188  
     length 2.86057  
     axis 0 0 0   XYZ
    dof ry rz
    limits (-20.0 10.0)
           (0.0 20.0)
  end
  begin
     id 18 
     name lhumerus
     direction 1 -4.48959e-011 2.88185e-027   
     length 4.36901   
     axis 180 -30 -90   XYZ
    dof rx ry rz
    limits (-60.0 90.0)
           (-90.0 90.0)
           (-90.0 90.0)
  end
  begin
     id 19
     name lradius
     direction 1 -4.48965e-011 -3.92618e-028   
     length 3.21737   
     axis 180 -30 -90   XYZ
    dof rx
    limits (-10.0 170.0)
  end
  begin
     id 20
     name lwrist
     direction 1 -4.49037e-011 2.57246e-027   
     length 1.60869   
     axis -1.61769e-015 90 90   XYZ
    dof ry
    limits (-180.0 0.0)
 end
  begin
     id 21 
     name lhand
     direction 1 -4.48807e-011 5.12958e-027   
     length 0.564313   
     axis -3.27988e-015 90 90   XYZ
    dof rx rz
    limits (-90.0 90.0)
           (-45.0 45.0)
  end
  begin
     id 22 
     name lfingers
     direction 1 -4.48879e-011 1.02687e-026   
     length 0.454963   
     axis -6.5598e-015 90 90   XYZ
    dof rx
    limits (0.0 90.0)
  end
  begin
     id 23
     name lthumb
     direction 0.707107 -6.3475e-011 0.707107   
     length 0.653239   
     axis -90 45 2.19363e-014   XYZ
    dof rx rz
    limits (-45.0 45.0)
           (-45.0 45.0)
  end
  begin
     id 24 
     name rclavicle
     direction -0.954677 0.253915 0.155304   
     length 3.11497  
     axis 0 0 0   XYZ 
    dof ry rz
    limits (-10.0 20.0)
           (-20.0 0.0)
  end
  begin
     id 25 
     name rhumerus
     direction -1 -4.48958e-011 -8.20169e-028  
     length 4.34118   
     axis 180 30 90   XYZ
    dof rx ry rz
    limits (-90.0 60.0)
           (-90.0 90.0)
           (-90.0 90.0)
  end
  begin
     id 26 
     name rradius
     direction -1 -4.48978e-011 1.5676e-027   
     length 3.09531   
     axis 180 30 90   XYZ
    dof rx
    limits (-10.0 170.0)
  end
  begin
     id 27 
     name rwrist
     direction -1 -4.49001e-011 2.57123e-027   
     length 1.54765   
     axis -1.61769e-015 -90 -90   XYZ
    dof ry
    limits (-180.0 0.0)
  end
  begin
     id 28
     name rhand
     direction -1 -4.48847e-011 5.13225e-027   
     length 0.597446   
     axis -3.27988e-015 -90 -90   XYZ
    dof rx rz
    limits (-90.0 90.0)
           (-45.0 45.0)
  end
  begin
     id 29
     name rfingers
     direction -1 -4.49094e-011 1.02974e-026   
     length 0.481677   
     axis -6.5598e-015 -90 -90   XYZ
    dof rx
    limits (0.0 90.0)
  end
  begin
     id 30
     name rthumb
     direction -0.707107 -6.34859e-011 0.707107   
     length 0.691594   
     axis -90 -45 -2.19363e-014   XYZ
    dof rx rz
    limits (-45.0 45.0)
           (-45.0 45.0)
  end
:hierarchy
  begin
    root lhipjoint rhipjoint lowerback
    lhipjoint lfemur
    lfemur ltibia
    ltibia lfoot
    lfoot ltoes
    rhipjoint rfemur
    rfemur rtibia
    rtibia rfoot
    rfoot rtoes
    lowerback upperback
    upperback thorax
    thorax lowerneck lclavicle rclavicle
    lowerneck upperneck
    upperneck head
    lclavicle lhumerus
    lhumerus lradius
    lradius lwrist
    lwrist lhand lthumb
    lhand lfingers
    rclavicle rhumerus
    rhumerus rradius
    rradius rwrist
    rwrist rhand rthumb
    rhand rfingers
  end

#!OML:ASF I:\Acrobat_Osman\acrobat\cartwheel_test 2\Patient 1\Session 1\acrobat.ASF
:FULLY-SPECIFIED
:DEGREES
272
root 12.7773 12.1707 17.1944 207.661 11.6194 -179.862
lowerback 17.5541 -1.62083 6.64142
upperback 5.91172 0.717249 7.29272
thorax -3.55619 0.882664 3.84036
lowerneck -10.1186 1.91997 0.127645
upperneck -11.8892 3.26638 -7.91853
head -1.93353 2.31863 -2.54741
rclavicle -1.59028e-014 3.18055e-014
rhumerus -8.0026 -0.36615 -55.5008
rradius 56.7745
rwrist -2.55204
rhand -29.8718 38.8181
rfingers 7.12502
rthumb -3.19361 8.8623
lclavicle -1.59028e-014 3.18055e-014
lhumerus -29.525 -15.0064 86.3265
lradius 74.2894
lwrist 36.0361
lhand -25.2335 53.9135
lfingers 7.12502
lthumb 1.28606 83.8893
rfemur -95.2554 -4.8973 17.4018
rtibia 79.7211
rfoot -15.5893 -11.4171
rtoes -22.8555
lfemur -20.419 16.2519 -14.8954
ltibia 84.5963
lfoot -14.0217 8.14217
ltoes -45.221
273
root 12.7926 12.1381 17.1636 207.366 10.8493 -179.79
lowerback 18.3301 -1.36484 6.74529
upperback 6.0494 1.15626 6.96314
thorax -3.81991 1.10588 3.3363
lowerneck -9.98736 1.50707 -0.201653
upperneck -12.1402 2.77627 -7.78261
head -2.06644 2.11703 -2.46357
rclavicle -1.43125e-014 1.59028e-015
rhumerus -4.67679 0.558365 -55.1661
rradius 57.1429
rwrist -3.40682
rhand -30.025 38.6112
rfingers 7.12502
rthumb -3.34162 8.6576
lclavicle -1.43125e-014 1.59028e-015
lhumerus -31.5956 -14.2933 85.5684
lradius 71.9498
lwrist 35.5032
lhand -26.4305 53.6005
lfingers 7.12502
lthumb 0.129911 83.5802
rfemur -95.0972 -5.50515 17.82
rtibia 80.5046
rfoot -16.2102 -11.4067
rtoes -22.4135
lfemur -25.0713 17.246 -13.355
ltibia 90.207
lfoot -15.8583 7.7917
ltoes -46.6317
274
root 12.8033 12.1309 17.1432 207.114 9.95818 -179.758
lowerback 18.8728 -1.03538 6.71216
upperback 6.20952 1.62546 6.59585
thorax -3.92929 1.34272 2.85443
lowerneck -9.9484 1.00162 -0.426855
upperneck -12.2369 2.15908 -7.53257
head -2.13531 1.83392 -2.35481
rclavicle 1.11319e-014 9.22361e-014
rhumerus -1.74641 1.86736 -54.4075
rradius 58.2433
rwrist -4.67496
rhand -30.0485 38.2232
rfingers 7.12502
rthumb -3.36427 8.27003
lclavicle 1.11319e-014 9.22361e-014
lhumerus -33.5358 -14.3491 85.1022
lradius 70.3406
lwrist 36.449
lhand -28.7811 52.0547
lfingers 7.12502
lthumb -2.14028 82.0237
rfemur -94.8024 -6.21217 18.1949
rtibia 80.9465
rfoot -16.6813 -11.4576
rtoes -22.6551
lfemur -30.0702 18.4371 -11.7798
ltibia 94.9891
lfoot -16.4988 5.99066
ltoes -44.5921
275
root 12.8139 12.1536 17.1266 206.657 9.23378 -179.469
lowerback 19.5814 -0.574911 6.49537
upperback 6.46887 2.26578 6.26508
thorax -4.01849 1.67287 2.47016
lowerneck -9.75316 0.465315 -0.664261
upperneck -12.4059 1.49686 -7.13328
head -2.25384 1.52858 -2.19742
rclavicle -7.95139e-015 -4.29375e-014
rhumerus 0.763956 3.44492 -53.1909
rradius 60.0016
rwrist -5.81449
rhand -30.1503 37.6168
rfingers 7.12502
rthumb -3.46265 7.66517
lclavicle -7.95139e-015 -4.29375e-014
lhumerus -35.0809 -13.8132 84.3162
lradius 69.3724
lwrist 35.6851
lhand -27.3162 52.4091
lfingers 7.12502
lthumb -0.725445 82.3876
rfemur -93.9809 -6.64366 18.7541
rtibia 81.0248
rfoot -17.0791 -11.5834
rtoes -23.148
lfemur -34.574 20.0227 -9.9303
ltibia 98.6023
lfoot -17.9625 4.82436
ltoes -45.061
276
root 12.8154 12.1991 17.1129 206.249 8.31506 -178.947
lowerback 20.1882 -0.127498 6.41006
upperback 6.73919 2.92508 6.03153
thorax -4.03565 2.02165 2.1062
lowerneck -9.32063 -0.00946764 -0.934244
upperneck -12.714 0.909059 -6.62438
head -2.45257 1.26589 -2.00093
rclavicle -5.88403e-014 -8.5875e-014
rhumerus 2.96108 5.11937 -51.5172
rradius 62.2234
rwrist -6.59104
rhand -30.7273 35.1956
rfingers 7.12502
rthumb -4.01979 5.25376
lclavicle -5.88403e-014 -8.5875e-014
lhumerus -36.3981 -12.8017 83.568
lradius 69.2402
lwrist 35.2345
lhand -26.67 52.9338
lfingers 7.12502
lthumb -0.101319 82.9135
rfemur -92.8832 -7.15273 19.5724
rtibia 80.7281
rfoot -17.4305 -11.6881
rtoes -23.5456
lfemur -39.1266 21.5809 -7.91665
ltibia 101.127
lfoot -19.5216 3.64613
ltoes -44.8434
277
root 12.8014 12.2605 17.1061 206.051 6.88553 -178.651
lowerback 20.4188 0.140727 6.32216
upperback 6.92175 3.30568 5.85865
thorax -3.95181 2.23048 1.87752
lowerneck -9.07334 -0.52504 -1.42489
upperneck -13.0639 0.313348 -6.14291
head -2.63032 1.02111 -1.77228
rclavicle 2.8625e-014 8.11041e-014
rhumerus 5.00682 6.69731 -49.5679
rradius 64.6142
rwrist -7.18122
rhand -30.4562 35.1811
rfingers 7.12502
rthumb -3.758 5.23448
lclavicle 2.8625e-014 8.11041e-014
lhumerus -37.4778 -11.1391 82.8913
lradius 69.693
lwrist 34.8897
lhand -26.2805 51.0535
lfingers 7.12502
lthumb 0.274847 81.033
rfemur -91.8462 -8.19747 20.1695
rtibia 80.1014
rfoot -17.7134 -11.6488
rtoes -23.0459
lfemur -44.3671 22.3765 -6.44848
ltibia 102.627
lfoot -20.5393 3.31451
ltoes -43.7974
278
root 12.7782 12.3531 17.1014 205.786 5.44223 -178.52
lowerback 20.7192 0.36416 5.97666
upperback 7.07267 3.57177 5.64998
thorax -3.9488 2.37546 1.77769
lowerneck -8.94524 -1.07816 -2.00058
upperneck -13.2487 -0.317085 -5.49
head -2.7252 0.744627 -1.46667
rclavicle 8.5875e-014 1.11319e-013
rhumerus 6.91612 8.24314 -47.5626
rradius 67.1041
rwrist -7.98269
rhand -30.3982 35.474
rfingers 7.12502
rthumb -3.70197 5.52638
lclavicle 8.5875e-014 1.11319e-013
lhumerus -38.4797 -9.09372 82.1845
lradius 70.8649
lwrist 34.3964
lhand -25.168 48
lfingers 7.12502
lthumb 1.34927 77.9754
rfemur -90.4795 -9.26314 20.4019
rtibia 79.0602
rfoot -17.8875 -11.5685
rtoes -21.4224
lfemur -49.4641 22.5472 -5.57282
ltibia 102.815
lfoot -21.1091 4.19594
ltoes -43.2855
279
root 12.7471 12.4806 17.0972 205.871 3.99928 -178.376
lowerback 20.658 0.573797 5.56547
upperback 7.11151 3.72104 5.32271
thorax -3.87585 2.44506 1.62485
lowerneck -8.50019 -1.6372 -2.26765
upperneck -13.6728 -1.00475 -4.78124
head -2.95247 0.431427 -1.19992
rclavicle 2.8625e-014 3.81667e-014
rhumerus 8.22387 9.49922 -46.2439
rradius 69.2665
rwrist -8.85663
rhand -31.3454 35.5102
rfingers 7.12502
rthumb -4.61663 5.58053
lclavicle 2.8625e-014 3.81667e-014
lhumerus -39.4684 -7.02088 81.3669
lradius 72.2455
lwrist 34.1322
lhand -24.1981 46.5235
lfingers 7.12502
lthumb 2.286 76.491
rfemur -89.1754 -10.1671 20.5547
rtibia 77.5606
rfoot -17.6636 -11.7359
rtoes -20.1859
lfemur -54.7155 22.2319 -5.13379
ltibia 101.668
lfoot -21.4501 5.76583
ltoes -43.5565
280
root 12.6909 12.6373 17.0995 206.156 2.60098 -178.294
lowerback 20.5407 0.616487 5.10183
upperback 7.14068 3.60382 4.81947
thorax -3.77614 2.37609 1.37887
lowerneck -8.12018 -0.0903311 -2.37104
upperneck -14.0752 -2.00999 -4.45685
head -3.18702 -1.48947 -1.00008
rclavicle -2.70347e-014 -5.40694e-014
rhumerus 8.88287 10.059 -46.3666
rradius 72.4813
rwrist -9.375
rhand -31.0273 36.6413
rfingers 7.12502
rthumb -4.3095 6.70518
lclavicle -2.70347e-014 -5.40694e-014
lhumerus -40.2786 -4.61 80.3764
lradius 73.9373
lwrist 34.1492
lhand -23.2001 46.8692
lfingers 7.12502
lthumb 3.24987 76.8241
rfemur -87.7763 -10.9957 20.4506
rtibia 75.53
rfoot -16.9972 -11.9901
rtoes -19.7442
lfemur -59.7526 21.243 -5.11032
ltibia 99.1448
lfoot -21.2984 8.05403
ltoes -43.533
281
root 12.6319 12.8218 17.1027 206.666 1.51955 -178.106
lowerback 20.3454 0.757144 4.26455
upperback 7.18514 3.52969 4.32665
thorax -3.6411 2.32208 1.34923
lowerneck -8.1782 -0.43094 -2.42553
upperneck -14.4674 -2.42596 -3.6632
head -3.30542 -1.71701 -0.729154
rclavicle -6.99722e-014 -7.87187e-014
rhumerus 9.26088 10.4145 -47.1704
rradius 75.5085
rwrist -9.76422
rhand -30.8379 37.1553
rfingers 7.12502
rthumb -4.1266 7.21552
lclavicle -6.99722e-014 -7.87187e-014
lhumerus -40.7649 -2.22313 79.5751
lradius 75.7745
lwrist 34.8045
lhand -22.6705 46.5358
lfingers 7.12502
lthumb 3.76131 76.4824
rfemur -86.2503 -11.3279 20.1599
rtibia 72.9789
rfoot -16.2913 -12.2288
rtoes -18.6607
lfemur -63.9232 20.0451 -4.9243
ltibia 95.1535
lfoot -21.1035 9.83314
ltoes -43.1552
282
root 12.5607 13.0396 17.1063 207.4 0.540918 -177.788
lowerback 20.0434 0.982912 3.48398
upperback 7.15086 3.5699 3.85452
thorax -3.53344 2.31754 1.2879
lowerneck -8.27233 -0.874067 -2.63407
upperneck -14.719 -2.92889 -2.70875
head -3.36064 -1.98192 -0.379656
rclavicle -5.96354e-014 -8.42847e-014
rhumerus 9.19246 10.7467 -48.3046
rradius 77.9881
rwrist -10.1363
rhand -30.9413 37.6616
rfingers 7.12502
rthumb -4.22646 7.72374
lclavicle -5.96354e-014 -8.42847e-014
lhumerus -40.9283 -0.489008 79.1782
lradius 77.4735
lwrist 35.871
lhand -22.4792 45.8741
lfingers 7.12502
lthumb 3.94603 75.8173
rfemur -84.6442 -11.5042 19.9612
rtibia 69.909
rfoot -15.3828 -12.376
rtoes -16.6178
lfemur -67.1972 18.5622 -4.33227
ltibia 89.8482
lfoot -21.0056 10.3089
ltoes -43.1763
283
root 12.4739 13.2882 17.1079 208.174 -0.109055 -177.392
lowerback 19.7307 1.27986 2.55182
upperback 7.10474 3.67154 3.32381
thorax -3.43756 2.33862 1.23888
lowerneck -8.20152 -1.32626 -2.84164
upperneck -14.9966 -3.41 -1.53354
head -3.44414 -2.23628 0.0439142
rclavicle 2.54444e-014 8.74653e-015
rhumerus 8.7109 11.0935 -50.0563
rradius 80.1616
rwrist -10.4055
rhand -30.6949 38.2215
rfingers 7.12502
rthumb -3.98856 8.27912
lclavicle 2.54444e-014 8.74653e-015
lhumerus -40.7551 0.797362 78.9013
lradius 78.6985
lwrist 36.3075
lhand -21.6517 44.9784
lfingers 7.12502
lthumb 4.74512 74.9053
rfemur -82.7598 -11.4609 19.6454
rtibia 66.3498
rfoot -14.4087 -12.3891
rtoes -13.3787
lfemur -69.3244 17.0646 -3.43065
ltibia 83.5949
lfoot -20.6249 10.0537
ltoes -44.3835
284
root 12.3688 13.5417 17.1064 208.999 -0.341696 -176.983
lowerback 19.3745 1.59366 1.32719
upperback 7.01843 3.73542 2.77024
thorax -3.37666 2.3328 1.34257
lowerneck -8.15076 -1.69794 -3.35019
upperneck -15.1219 -3.71945 -0.122325
head -3.45779 -2.3953 0.593397
rclavicle 1.43125e-014 1.51076e-014
rhumerus 8.06695 11.8291 -52.1161
rradius 82.0424
rwrist -10.7249
rhand -30.1781 38.6982
rfingers 7.12502
rthumb -3.48948 8.74706
lclavicle 1.43125e-014 1.51076e-014
lhumerus -40.4454 1.40597 79.0821
lradius 81.0034
lwrist 38.5533
lhand -23.8023 49.0377
lfingers 7.12502
lthumb 2.6683 79.0008
rfemur -80.6245 -11.2273 18.9027
rtibia 62.4382
rfoot -14.1006 -12.0053
rtoes -9.23717
lfemur -70.5807 15.7287 -2.31367
ltibia 77.0297
lfoot -20.6887 9.36694
ltoes -47.0804
285
root 12.2395 13.7863 17.1 209.627 -0.328282 -176.72
lowerback 19.1707 1.85216 0.00163303
upperback 6.9423 3.73354 2.1734
thorax -3.384 2.29933 1.46716
lowerneck -8.44724 -2.07709 -4.2295
upperneck -14.8208 -3.96662 1.4127
head -3.25092 -2.50457 1.23089
rclavicle -2.62396e-014 -1.55052e-014
rhumerus 7.20628 12.9169 -54.2507
rradius 83.6405
rwrist -11.1187
rhand -30.1968 38.9674
rfingers 7.12502
rthumb -3.50752 9.01649
lclavicle -2.62396e-014 -1.55052e-014
lhumerus -39.7984 1.67987 79.2006
lradius 81.5235
lwrist 38.2776
lhand -22.7221 45.7455
lfingers 7.12502
lthumb 3.71146 75.693
rfemur -78.0446 -11.1037 17.4354
rtibia 58.4596
rfoot -15.1682 -10.5109
rtoes -3.45706
lfemur -71.0519 14.3718 -1.18198
ltibia 70.8941
lfoot -16.862 9.31199
ltoes -48.8381
